<svg width="60" height="63" viewBox="0 0 60 63" fill="none" xmlns="http://www.w3.org/2000/svg">
<g filter="url(#filter0_d)">
<path d="M5 30C5 16.2 16.2 5 30 5C43.8 5 55 16.2 55 30C55 43.8 43.8 55 30 55C16.2 55 5 43.8 5 30ZM30 45C38.275 45 45 38.275 45 30C45 21.725 38.275 15 30 15C21.725 15 15 21.725 15 30C15 38.275 21.725 45 30 45Z" fill="#983031"/>
<path d="M34.4307 32.6111H36.7285V35.0867H34.4307V39.2H31.3457V35.0867H23.3604L23.2715 33.2078L31.2442 20.7156H34.4307V32.6111ZM26.5088 32.6111H31.3457V24.8923L31.1172 25.2986L26.5088 32.6111Z" fill="#983031"/>
</g>
<defs>
<filter id="filter0_d" x="-4" y="0" width="68" height="68" filterUnits="userSpaceOnUse" color-interpolation-filters="sRGB">
<feFlood flood-opacity="0" result="BackgroundImageFix"/>
<feColorMatrix in="SourceAlpha" type="matrix" values="0 0 0 0 0 0 0 0 0 0 0 0 0 0 0 0 0 0 127 0"/>
<feOffset dy="4"/>
<feGaussianBlur stdDeviation="2"/>
<feColorMatrix type="matrix" values="0 0 0 0 0 0 0 0 0 0 0 0 0 0 0 0 0 0 0.25 0"/>
<feBlend mode="normal" in2="BackgroundImageFix" result="effect1_dropShadow"/>
<feBlend mode="normal" in="SourceGraphic" in2="effect1_dropShadow" result="shape"/>
</filter>
</defs>
</svg>
