<svg width="60" height="63" viewBox="0 0 60 63" fill="none" xmlns="http://www.w3.org/2000/svg">
<g filter="url(#filter0_d)">
<path d="M5 30C5 16.2 16.2 5 30 5C43.8 5 55 16.2 55 30C55 43.8 43.8 55 30 55C16.2 55 5 43.8 5 30ZM30 45C38.275 45 45 38.275 45 30C45 21.725 38.275 15 30 15C21.725 15 15 21.725 15 30C15 38.275 21.725 45 30 45Z" fill="#983031"/>
<path d="M27.5625 28.5486H29.4414C30.3893 28.5401 31.1384 28.2947 31.6885 27.8123C32.2471 27.3298 32.5264 26.6316 32.5264 25.7175C32.5264 24.8373 32.2936 24.156 31.8281 23.6736C31.3711 23.1827 30.6686 22.9373 29.7207 22.9373C28.8913 22.9373 28.21 23.1785 27.6768 23.6609C27.1436 24.1348 26.877 24.7569 26.877 25.5271H23.792C23.792 24.5792 24.0417 23.7159 24.541 22.9373C25.0488 22.1586 25.7513 21.5535 26.6484 21.1218C27.554 20.6817 28.5654 20.4617 29.6826 20.4617C31.5277 20.4617 32.9749 20.9272 34.0244 21.8582C35.0824 22.7807 35.6113 24.0671 35.6113 25.7175C35.6113 26.547 35.3447 27.3298 34.8115 28.0662C34.2868 28.794 33.6055 29.3442 32.7676 29.7166C33.7832 30.0636 34.5534 30.6095 35.0781 31.3542C35.6113 32.099 35.8779 32.9877 35.8779 34.0203C35.8779 35.6791 35.3067 36.9994 34.1641 37.9812C33.03 38.963 31.5361 39.4539 29.6826 39.4539C27.9053 39.4539 26.4496 38.9799 25.3154 38.032C24.1813 37.0841 23.6143 35.823 23.6143 34.2488H26.6992C26.6992 35.0613 26.9701 35.7214 27.5117 36.2292C28.0619 36.7371 28.7982 36.991 29.7207 36.991C30.6771 36.991 31.4303 36.7371 31.9805 36.2292C32.5306 35.7214 32.8057 34.9851 32.8057 34.0203C32.8057 33.047 32.5179 32.2979 31.9424 31.7732C31.3669 31.2485 30.5121 30.9861 29.3779 30.9861H27.5625V28.5486Z" fill="#983031"/>
</g>
<defs>
<filter id="filter0_d" x="-4" y="0" width="68" height="68" filterUnits="userSpaceOnUse" color-interpolation-filters="sRGB">
<feFlood flood-opacity="0" result="BackgroundImageFix"/>
<feColorMatrix in="SourceAlpha" type="matrix" values="0 0 0 0 0 0 0 0 0 0 0 0 0 0 0 0 0 0 127 0"/>
<feOffset dy="4"/>
<feGaussianBlur stdDeviation="2"/>
<feColorMatrix type="matrix" values="0 0 0 0 0 0 0 0 0 0 0 0 0 0 0 0 0 0 0.25 0"/>
<feBlend mode="normal" in2="BackgroundImageFix" result="effect1_dropShadow"/>
<feBlend mode="normal" in="SourceGraphic" in2="effect1_dropShadow" result="shape"/>
</filter>
</defs>
</svg>
