<svg width="30" height="30" viewBox="0 0 30 30" fill="none" xmlns="http://www.w3.org/2000/svg">
<circle cx="15" cy="15" r="15" fill="#333333"/>
<path d="M23.065 18.6922C21.9033 18.6922 20.7794 18.5033 19.7311 18.1633C19.4006 18.05 19.0322 18.135 18.7772 18.39L17.2944 20.2506C14.6217 18.9756 12.1189 16.5672 10.7872 13.8L12.6289 12.2322C12.8839 11.9678 12.9594 11.5994 12.8556 11.2689C12.5061 10.2206 12.3267 9.09667 12.3267 7.935C12.3267 7.425 11.9017 7 11.3917 7H8.12389C7.61389 7 7 7.22667 7 7.935C7 16.7089 14.3006 24 23.065 24C23.7356 24 24 23.405 24 22.8856V19.6272C24 19.1172 23.575 18.6922 23.065 18.6922Z" fill="white"/>
</svg>
